<svg width="130" height="17" viewBox="0 0 130 17" fill="none" xmlns="http://www.w3.org/2000/svg">
<g clip-path="url(#clip0_88_1285)">
<path d="M91.2168 16.817H121.599C122.702 16.817 123.794 16.5997 124.814 16.1775C125.833 15.7553 126.759 15.1364 127.539 14.3563C128.319 13.5761 128.938 12.65 129.36 11.6307C129.783 10.6114 130 9.51891 130 8.41562C130.002 7.31114 129.786 6.21713 129.365 5.19618C128.943 4.17524 128.325 3.24739 127.544 2.46574C126.764 1.68409 125.837 1.06398 124.817 0.640877C123.797 0.217778 122.703 -1.59183e-06 121.599 0L91.2168 0C90.1123 -1.59183e-06 89.0187 0.217778 87.9985 0.640877C86.9782 1.06398 86.0514 1.68409 85.2711 2.46574C84.4908 3.24739 83.8722 4.17524 83.4509 5.19618C83.0295 6.21713 82.8136 7.31114 82.8154 8.41562C82.8154 10.6438 83.7006 12.7807 85.2761 14.3563C86.8517 15.9318 88.9886 16.817 91.2168 16.817ZM4.80214 16.8408H8.51072V3.29018H13.3129V0H0V3.28067H4.80214V16.8408ZM18.1625 16.8408H21.8711V3.92254H21.9187L26.174 16.8312H29.0268L33.4248 3.92254H33.4723V16.8312H37.1809V0H31.5942L27.6955 10.9831H27.6479L23.7729 0H18.1625V16.8408ZM42.3824 0.0570551H47.9453C49.2404 0.0590456 50.5305 0.218707 51.787 0.532514C52.9313 0.803976 54.0096 1.30191 54.9583 1.99693C55.8759 2.68686 56.6145 3.5869 57.1121 4.62146C57.6747 5.85059 57.9464 7.19284 57.9062 8.544C57.9319 9.78876 57.6682 11.0225 57.1359 12.148C56.6402 13.1608 55.9295 14.0532 55.0534 14.763C54.1566 15.482 53.1323 16.0256 52.0342 16.3653C50.8735 16.7338 49.6623 16.9183 48.4445 16.9121H42.3824V0.0570551ZM46.091 13.465H47.9928C48.7927 13.4705 49.5905 13.3827 50.3701 13.2035C51.0657 13.0623 51.7236 12.7755 52.3005 12.3619C52.8511 11.9453 53.2891 11.3978 53.5747 10.7691C53.9086 10.0087 54.0709 9.18406 54.0502 8.35381C54.0643 7.60989 53.9013 6.87328 53.5747 6.20474C53.2782 5.61229 52.8505 5.09521 52.3243 4.69278C51.7773 4.28658 51.1599 3.98513 50.5033 3.80367C49.779 3.60116 49.0301 3.50035 48.2781 3.50413H46.091V13.465ZM63.2788 0.0570551H69.5549C70.2915 0.0574142 71.0271 0.109845 71.7563 0.213957C72.448 0.303562 73.1188 0.512707 73.7389 0.832053C74.3182 1.13261 74.8096 1.57818 75.1653 2.1253C75.5598 2.79294 75.7499 3.56161 75.7121 4.33619C75.7447 5.19872 75.4625 6.04366 74.9181 6.71348C74.3624 7.35704 73.63 7.82326 72.8118 8.05428V8.0828C73.3383 8.15797 73.849 8.31857 74.3238 8.55826C74.7622 8.77842 75.1569 9.07647 75.4886 9.43786C75.8172 9.79977 76.0709 10.2231 76.2351 10.6836C76.4122 11.1711 76.5007 11.6863 76.4966 12.205C76.5251 12.9863 76.327 13.7591 75.926 14.4302C75.553 15.0144 75.0482 15.5029 74.4521 15.8566C73.8255 16.2327 73.1387 16.4981 72.4219 16.6411C71.6828 16.7995 70.9289 16.8792 70.173 16.8788H63.2788V0.0570551ZM66.9874 6.7848H69.6738C69.9586 6.78635 70.2427 6.75444 70.5201 6.68971C70.7854 6.6321 71.0382 6.52743 71.2665 6.38066C71.4893 6.23697 71.6738 6.04114 71.8038 5.81011C71.9431 5.54684 72.0119 5.25201 72.0035 4.95428C72.0188 4.65169 71.9461 4.35114 71.7943 4.08895C71.6468 3.86428 71.4458 3.67968 71.2095 3.55168C70.9446 3.41865 70.6607 3.32724 70.3679 3.28067C70.0781 3.22462 69.7836 3.19596 69.4883 3.19508H66.9684L66.9874 6.7848ZM66.9874 13.7503H70.3156C70.6083 13.7511 70.9001 13.7192 71.1857 13.6552C71.4696 13.5971 71.7393 13.484 71.9797 13.3224C72.2196 13.164 72.4197 12.9525 72.5645 12.7043C72.7207 12.4208 72.7979 12.1006 72.788 11.7771C72.8007 11.4359 72.6967 11.1005 72.4932 10.8262C72.2936 10.5794 72.0353 10.3865 71.742 10.2652C71.4373 10.1382 71.1178 10.0504 70.7911 10.0037C70.4682 9.9578 70.1425 9.93397 69.8164 9.93234H67.0112L66.9874 13.7503Z" fill="url(#paint0_linear_88_1285)"/>
</g>
<defs>
<linearGradient id="paint0_linear_88_1285" x1="0" y1="8.44415" x2="130" y2="8.44415" gradientUnits="userSpaceOnUse">
<stop stop-color="#90CEA1"/>
<stop offset="0.56" stop-color="#3CBEC9"/>
<stop offset="1" stop-color="#00B3E5"/>
</linearGradient>
<clipPath id="clip0_88_1285">
<rect width="130" height="16.8883" fill="white"/>
</clipPath>
</defs>
</svg>
